<?xml version="1.0" encoding="UTF-8"?>
<svg width="447.59" height="201.96" overflow="hidden" version="1.1" viewBox="0 0 447.59 201.96" xmlns="http://www.w3.org/2000/svg" xmlns:cc="http://creativecommons.org/ns#" xmlns:dc="http://purl.org/dc/elements/1.1/" xmlns:rdf="http://www.w3.org/1999/02/22-rdf-syntax-ns#">
 <metadata>
  <rdf:RDF>
   <cc:Work rdf:about="">
    <dc:format>image/svg+xml</dc:format>
    <dc:type rdf:resource="http://purl.org/dc/dcmitype/StillImage"/>
    <dc:title/>
   </cc:Work>
  </rdf:RDF>
 </metadata>
 <defs>
  <clipPath id="clip1">
   <rect x="257" y="150" width="457" height="193"/>
  </clipPath>
  <clipPath id="clip2">
   <rect x="257" y="150" width="457" height="193"/>
  </clipPath>
  <clipPath id="clip3">
   <rect x="257" y="150" width="457" height="649"/>
  </clipPath>
  <clipPath id="clip4">
   <rect x="275" y="168" width="407" height="191"/>
  </clipPath>
  <clipPath id="clip5">
   <rect x="275" y="168" width="407" height="191"/>
  </clipPath>
  <clipPath id="clip6">
   <rect x="275" y="168" width="407" height="191"/>
  </clipPath>
  <clipPath id="clip7">
   <rect x="275" y="168" width="407" height="191"/>
  </clipPath>
  <clipPath id="clip8">
   <rect x="275" y="168" width="407" height="191"/>
  </clipPath>
  <clipPath id="clip9">
   <rect x="275" y="168" width="407" height="191"/>
  </clipPath>
  <clipPath id="clip10">
   <rect x="275" y="168" width="407" height="191"/>
  </clipPath>
  <clipPath id="clip11">
   <rect x="275" y="168" width="407" height="191"/>
  </clipPath>
  <clipPath id="clip12">
   <rect x="275" y="168" width="407" height="191"/>
  </clipPath>
  <clipPath id="clip13">
   <rect x="275" y="168" width="407" height="191"/>
  </clipPath>
  <clipPath id="clip14">
   <rect x="275" y="168" width="407" height="191"/>
  </clipPath>
  <clipPath id="clip15">
   <rect x="275" y="168" width="407" height="191"/>
  </clipPath>
  <clipPath id="clip16">
   <rect x="275" y="168" width="407" height="191"/>
  </clipPath>
  <clipPath id="clip17">
   <rect x="275" y="168" width="407" height="191"/>
  </clipPath>
  <clipPath id="clip18">
   <rect x="275" y="168" width="407" height="191"/>
  </clipPath>
  <clipPath id="clipPath198">
   <rect x="268.95" y="157.91" width="447.59" height="201.96"/>
  </clipPath>
 </defs>
 <g transform="translate(-268.95 -157.91)" clip-path="url(#clipPath198)">
  <path d="m0 0h960v540h-960z" fill="#fff"/>
  <g clip-path="url(#clip1)">
   <g clip-path="url(#clip2)">
    <g clip-path="url(#clip3)">
     <g clip-path="url(#clip4)">
      <path transform="matrix(1,0,0,1.003,257,150.02)" d="m179.7 82.98c-0.021 2.058 0.08 4.1376 0.122 6.2037 0.039 0.45-0.024 0.9266 0.078 1.3601 0.45-0.0912 0.892-0.3649 1.376-0.4061 1.112-0.2137 2.501 0.168 2.93 1.3223 0.328 0.8927 0.22 1.8898 0.626 2.765 0.478 1.3582 1.36 2.6147 1.455 4.0797 0.049 0.367-0.222 0.7534-0.111 1.0936 0.702 0.3153 1.466 0.539 2.215 0.6964 0.261-0.2601 0.108-0.7293 0.171-1.0642 0-5.114-0.202-10.227-0.433-15.335 0.077-0.3223-0.231-0.3905-0.484-0.3524-2.641-0.1336-5.3-0.2487-7.931-0.369z" fill="#b3b3b3"/>
     </g>
     <g clip-path="url(#clip5)">
      <path transform="matrix(1,0,0,1.003,257,150.02)" d="m119.33 118.08c-1.748 0.238-3.381 0.968-5.103 1.33-0.395 0.065-0.902 0.151-0.641 0.671 0.176 2.738-0.162 5.488 8e-3 8.233 0.104 0.326-0.219 1.146 0.355 1.022 0.497-0.077 1.06 0.022 1.525-0.18 0.431-0.738 0.56-1.62 0.851-2.419 0.281-0.917 0.559-1.835 0.846-2.75 0.727-0.019 1.479 0.106 2.194-0.03 0.165-1.001 0.203-2.068 0.282-3.098 0.043-0.904 0.069-1.828-0.137-2.714-0.036-0.062-0.116-0.066-0.18-0.065z" fill="#b3b3b3"/>
     </g>
     <g clip-path="url(#clip6)">
      <path transform="matrix(1,0,0,1.003,257,150.02)" d="m181.84 90.527c-1.721 0.0399-3.372 1.2566-3.798 2.9488-0.519 1.6504-2.118 2.5664-3.556 3.3139-1.737 0.9277-3.691 1.685-4.908 3.318-2.081 2.609-4.956 4.367-7.697 6.192-2.556 1.722-4.921 3.764-7.744 5.056-2.737 1.315-5.302 3.081-7.224 5.458-0.991 1.214-1.854 2.574-3.18 3.458-1.867 1.309-4.008 2.149-6.042 3.157-2.768 1.378-5.888 2.276-9.003 1.876-3.701-0.323-7.393-0.819-11.11-0.922-0.273 0.28-0.281 0.787-0.445 1.155-0.376 1.346-0.899 2.66-1.15 4.036 0.132 0.871 0.05 1.796 0.472 2.605 0.508 0.91 1.427 1.495 2.205 2.156 1.661 1.239 3.355 2.554 5.397 3.084 2.339 0.66 4.802 0.504 7.204 0.582 2.017 0.067 4.031-0.192 5.976-0.726 1.817-0.518 3.752-0.802 5.405-1.768 1.304-0.826 1.927-2.311 2.809-3.515 1.369-2.083 2.719-4.192 4.086-6.265 1.736-0.701 3.536-1.259 5.266-1.959 3.656-2.779 7.225-5.684 11.001-8.297 0.824-0.625 1.801-0.966 2.809-1.137 0.972-0.148 1.94-0.476 2.649-1.187 3.505-3.236 6.889-6.602 10.32-9.917 1.373-1.376 2.824-2.685 4.11-4.145 0.463-0.9597-0.138-1.9875-0.478-2.8852-0.529-1.2019-1.179-2.4069-1.212-3.7474-0.063-0.8111-0.525-1.7022-1.396-1.8535-0.251-0.0585-0.51-0.0755-0.767-0.0716z" fill="#b3b3b3"/>
     </g>
     <g clip-path="url(#clip7)">
      <path transform="matrix(1,0,0,1.003,257,150.02)" d="m50.999 127.92 69.299 39.071s0.834 0.466 2.63 0.732c1.887 0.278 5.299 0.579 7.986 0.502 1.343-0.039 2.841 0.029 4.143-0.366 1.302-0.394 2.539-0.64 3.629-1.132 1.099-0.495 1.766-0.843 2.487-1.424 0.72-0.581 1.256-1.242 1.693-1.808 0.874-1.131 5.617-3.946 11.236-8.457 5.62-4.511 12.785-10.102 19.841-15.551s14.003-10.757 19.185-14.703c5.183-3.946 8.602-6.529 8.602-6.529s-0.193-0.938-0.457-2.387c-0.263-1.449-0.597-3.409-0.88-5.453-0.283-2.043-0.114-3.952-0.172-5.736-0.058-1.783-0.087-1.914 0.069-4.109-0.013-5.7139 0.617-14.182 0.839-21.717-0.196-2.1625-0.479-3.5762-0.839-3.5762s-1.259 0.5012-2.406 1.2531-2.542 1.7544-3.891 2.7568c-1.35 1.0026-2.655 2.0049-3.622 2.7568s-2.033 1.1077-2.033 1.1077c0.192 5.7834 0.565 11.964 0.437 17.316l-3.085-0.9251-3.753 3.6501-7.506 7.3-3.571 3.359-1.21 0.497-2.056 0.411-1.137 0.496-2.821 1.971-8.791 6.787-5.141 1.85-1.337 2.057-4.01 6.169s-0.927 1.48-2.495 2.094-3.595 1.051-6.011 1.655-5.258 0.357-7.803 0.328-4.974-0.53-6.928-1.815c-1.953-1.285-3.303-2.352-4.228-3.229-0.925-0.878-0.779-1.49-1.029-2.019 0.084-2.664-0.352-1.258-2.459-1.586 0.023-1.636-0.204-3.533-0.061-5.244 0.085-0.816 0.358-4.054-0.207-4.825-0.566-0.771-4.38-1.091-10.655-4.898-6.2749-3.808-14.43-8.595-22.515-13.286-8.0841-4.6913-16.098-9.2861-22.09-12.708-5.993-3.4219-9.9637-5.671-9.9637-5.671s-0.1284 1.4522-0.3051 3.727c-0.1767 2.2747-0.4017 5.3726-0.5945 8.6625-0.1929 3.2904-0.3535 6.7734-0.4015 9.8194 0.2452 5.347 0.7129 10.965 1.1725 14.908 1.3331 5.449 1.7292 7.219 3.2131 7.917z" fill="none" stroke="#000" stroke-width=".57578"/>
     </g>
     <g clip-path="url(#clip8)">
      <path transform="matrix(1,0,0,1.003,257,150.02)" d="m113.15 119.47 3.271-0.836c0.997-0.409 1.891-0.63 3.272-0.836 0.473 2.218 0 4.399-0.073 6.434l-2.29-0.036-1.599 5.235" fill="none" stroke="#000" stroke-width=".57578"/>
     </g>
     <g clip-path="url(#clip9)">
      <path transform="matrix(1,0,0,1.003,257,150.02)" d="m119.62 124.23c3.085 0.28 6.235 0.574 9.364 0.895 3.255 0.335 6.181-0.618 9.321-2.204 2.623-1.325 5.687-2.402 7.366-4.838 2.087-3.029 5.098-5.467 8.378-6.906 3.164-1.389 5.657-3.817 8.578-5.64 2.524-1.575 5.139-3.381 6.948-5.7506 2.22-2.908 7.45-3.1161 8.353-6.6012 0.791-3.0528 6.313-4.417 6.326-0.4361 6e-3 2.1798 2.838 4.9508 1.439 6.7925" fill="none" stroke="#000" stroke-width=".57578"/>
     </g>
     <g clip-path="url(#clip10)">
      <path transform="matrix(1,0,0,1.003,257,150.02)" d="m179.63 90.712-0.182-7.9611 8.886 0.3986" fill="none" stroke="#000" stroke-width=".57578"/>
     </g>
     <g clip-path="url(#clip11)">
      <path transform="matrix(1,0,0,1.003,257,150.02)" d="m78.395 50.942 20.212 0.1454" fill="none" stroke="#000" stroke-width=".57578"/>
     </g>
     <g clip-path="url(#clip12)">
      <path transform="matrix(1,0,0,1.003,257,150.02)" d="m200.39 75.37c-1.88-4.2884-5.967-6.4735-9.725-9.6042-3.388-2.8221-8.133-2.8193-11.728-4.8873-4.08-2.3479-8.131-4.3195-11.687-7.7281-3.053-2.9263-3.194-7.2258-8.753-7.2545-14.364-0.0745-28.767-1.3504-43.101-0.3345-3.549 0.2516-7.858-1.615-10.681 0.6276-1.939 1.541-4.7509 2.9816-6.1103 4.898" fill="none" stroke="#000" stroke-width=".57578"/>
     </g>
     <g clip-path="url(#clip13)">
      <path transform="matrix(1,0,0,1.003,257,150.02)" d="m78.395 50.942c-2.5908 4.5313-6.6559 7.7904-9.8878 12.214-1.2615 1.7269-3.4414 2.0935-5.3799 2.472-1.8158 0.3545-3.7344 1.038-5.5256 0.5817-1.193-0.304-2.4545 2.2164-2.5925 3.4286-0.2113 1.8569-1.099 3.241-1.6824 5.0106-0.5856 1.7758-1.4524 3.4685-2.3205 5.1437-0.694 1.3383-1.7346 2.3335-3.2921 2.4119l0.0818 0.3423 0.118 0.3355" fill="none" stroke="#000" stroke-width=".57578"/>
     </g>
     <g clip-path="url(#clip14)">
      <path transform="matrix(1,0,0,1.003,257,150.02)" d="m120.3 166.94 0.051-31.155" fill="none" stroke="#000" stroke-width=".57578"/>
     </g>
     <g clip-path="url(#clip15)">
      <path transform="matrix(1,0,0,1.003,257,150.02)" d="m144.26 134.45 0.206 27.555" fill="none" stroke="#000" stroke-width=".57578"/>
     </g>
     <g clip-path="url(#clip16)">
      <path transform="matrix(1,0,0,1.003,257,150.02)" d="m246.45 83.603 11.133 57.362 1.963-0.073 0.873-1.09s3.09-0.473 3.562 0c0.472 0.472 2.618-2.036 2.618-2.036h4.143c4.435 0 20.611-0.836 21.447 0 0.838 0.836 23.992 1.599 23.992 1.599l31.99 0.364 30.972-0.291s3.055-15.195 2.909-17.594c-0.145-2.399 0.218-9.961-1.09-16.577-1.31-6.6157-2.981-6.6157-2.764-13.014 0.218-6.398 2.109-16.431 2.109-16.431s0.363-4.5076-0.363-5.889c-0.727-1.3812-0.945-1.9629-0.945-1.9629l-37.661 0.4361-1.018 1.3814" fill="none" stroke="#000" stroke-width=".57578"/>
     </g>
     <g clip-path="url(#clip17)">
      <path transform="matrix(1,0,0,1.003,257,150.02)" d="m339.91 70.164c-3.004 1.3151-6.204 2.2369-9.433 2.7851-2.864 0.5038-5.857 0.198-8.559-0.9253-0.516-0.2298-1-0.5931-1.599-0.4727-24.482-0.0582-48.963-0.1624-73.446-0.1647-0.43 0.1566-0.155 0.7502-0.238 1.1003-0.018 3.5468-0.102 7.0953-0.056 10.641 0.214 0.4186 0.678-0.0213 0.966-0.1134 1.488-0.7307 2.913-1.5984 4.157-2.7004 1.397-1.1458 3.297-1.2391 5.023-1.193 1.841 0.0455 3.707 0.2689 5.565 0.353 6.019 0.3944 12.046 0.6932 18.053 1.2177 1.409 0.068 2.49 1.0963 3.401 2.0676 0.452 0.3754 0.642 1.1372 1.297 1.2109 1.615-0.011 3.224-0.2217 4.838-0.3023 7.059-0.4698 14.079-1.3657 21.115-2.0906 1.371-0.2442 2.749 0.0581 4.127 0.0955 3.86 0.2591 7.724 0.4739 11.594 0.4768 2.336-0.0236 4.707 0.1468 7.012-0.3196 0.52-0.0391 0.927-0.4088 1.092-0.8924 1.519-2.7661 3.441-5.2891 5.212-7.8882 0.074-0.9068 0.096-1.8148 0.184-2.7119 0-0.1468-0.183-0.2205-0.305-0.1739z" fill="#b3b3b3"/>
     </g>
     <g clip-path="url(#clip18)">
      <path transform="matrix(1,0,0,1.003,257,150.02)" d="m294.98 83.398-10.283 0.7197s-1.952-2.9818-3.906-3.2902c-1.954-0.3083-21.695-1.4393-21.695-1.4393s-5.347-0.9255-7.403 1.028c-2.057 1.9536-5.245 3.1875-5.245 3.1875l0.105-12.338 74.441 0.2056s2.57 1.6452 6.887 1.6452c4.32 0 12.648-2.8789 12.544-3.4958-0.102-0.617-0.307 3.4958-0.307 3.4958s-4.731 6.4777-5.449 8.3283c-0.72 1.8506-22.619 0.1027-22.619 0.1027z" fill="none" stroke="#000" stroke-width=".57578"/>
     </g>
    </g>
   </g>
  </g>
  <path d="m562.5 235.5h101.6" fill="none" stroke="#910a29" stroke-linejoin="round" stroke-miterlimit="10" stroke-width="1.3333"/>
  <path d="m638.5 218.5h25.2" fill="none" stroke="#910a29" stroke-linejoin="round" stroke-miterlimit="10" stroke-width="1.3333"/>
  <path d="m659.17 222.5v8.6h-1.334v-8.6zm-3.334 1.333 2.667-5.333 2.667 5.333zm5.334 5.934-2.667 5.333-2.667-5.333z" fill="#910a29"/>
  <g transform="translate(669.73,232)" aria-label="ð‘½ð‘©">
   <path d="m6.6016-7.25q0.60938-1.1406 0.74219-1.5312 0.14062-0.39844 0.14062-0.71875 0-0.5625-0.66406-0.64844l0.11719-0.51562h3.3281l-0.11719 0.51562q-0.28125 0.0625-0.49219 0.21875-0.20312 0.14844-0.38281 0.39844-0.17969 0.24219-0.53125 0.86719l-4.8516 8.7188h-1.9609l-0.33594-8.3516q-0.015625-0.44531-0.0625-0.79688-0.046875-0.35938-0.14844-0.58594t-0.25781-0.32813q-0.14844-0.10938-0.38281-0.14062l0.11719-0.51562h4.0391l-0.11719 0.51562q-0.34375 0.02344-0.53906 0.17188-0.1875 0.14844-0.27344 0.39844-0.078125 0.25-0.078125 0.75v0.33594q0 0.17188 0.00781 0.36719l0.054687 2.7422q0.03125 1.5703 0.03125 2.8672h0.09375z"/>
   <path d="m17.453-10.664q1.375 0 2.1406 0.24219 0.77344 0.24219 1.1172 0.71875 0.34375 0.47656 0.34375 1.2031 0 1.0859-0.60156 1.7891-0.59375 0.70312-1.9219 1.2188l-0.01563 0.085937q0.73438 0.29688 1.1328 0.82812 0.40625 0.53125 0.40625 1.2266 0 0.95312-0.46094 1.6641-0.45312 0.71094-1.4531 1.2031-1 0.48438-3.0781 0.48438h-4.2422l0.10938-0.51562q0.44531-0.125 0.65625-0.4375t0.39844-1.1562l1.4219-6.4453q0.10156-0.46094 0.10156-0.91406 0-0.32812-0.15625-0.47656-0.14844-0.15625-0.49219-0.20313l0.10938-0.51562zm-1.0781 4.6719q0.6875 0 1.1953-0.30469 0.51562-0.3125 0.78906-0.85938t0.27344-1.2578q0-0.67188-0.42188-1-0.42188-0.33594-1.3125-0.33594-0.54688 0-0.92187 0.039063l-0.82031 3.7188zm-2.3203 5.0547q0.32812 0.023438 1 0.023438 0.96875 0 1.5312-0.35938 0.57031-0.35938 0.84375-1.0078 0.27344-0.64844 0.27344-1.3281 0-1.4688-1.6641-1.4688h-1.0781z"/>
  </g>
  <path d="m422.5 288.5 23.679 25.568" fill="none" stroke="#910a29" stroke-linejoin="round" stroke-miterlimit="10" stroke-width="1.3333"/>
  <g transform="translate(442.22,334)" aria-label="Flank Face">
   <path d="m6.6562-9.5312q0 0.14844-0.015625 0.25781t-0.054688 0.17969q-0.039062 0.0625-0.09375 0.09375-0.046875 0.03125-0.10156 0.03125h-3.7031v3.4375h3.5q0.054687 0 0.10156 0.03125 0.054687 0.023437 0.09375 0.085937t0.054687 0.17188q0.015625 0.10156 0.015625 0.26562 0 0.14844-0.015625 0.25781-0.015625 0.10156-0.054687 0.17188-0.039063 0.0625-0.09375 0.10156-0.046875 0.03125-0.10156 0.03125h-3.5v4.2109q0 0.054688-0.03125 0.10938-0.03125 0.046876-0.10938 0.078126-0.078125 0.023438-0.20312 0.039062-0.125 0.023438-0.32812 0.023438-0.1875 0-0.32031-0.023438-0.13281-0.015625-0.21094-0.039062-0.078125-0.03125-0.10938-0.078125-0.03125-0.054688-0.03125-0.10938v-9.3594q0-0.30469 0.15625-0.42188 0.16406-0.125 0.34375-0.125h4.5469q0.054687 0 0.10156 0.03125 0.054687 0.03125 0.09375 0.10156 0.039063 0.070312 0.054687 0.1875 0.015625 0.10938 0.015625 0.25781z"/>
   <path d="m9.8281-0.19531q0 0.0625-0.03125 0.10938-0.03125 0.039062-0.10156 0.070312t-0.19531 0.046875-0.32031 0.015625q-0.1875 0-0.3125-0.015625t-0.20312-0.046875q-0.070312-0.03125-0.10156-0.070312-0.023438-0.046875-0.023438-0.10938v-10.438q0-0.0625 0.023437-0.10938 0.03125-0.04687 0.10156-0.07813 0.078125-0.03125 0.20312-0.04687 0.125-0.01563 0.3125-0.01563 0.19531 0 0.32031 0.01563t0.19531 0.04687q0.070312 0.03125 0.10156 0.07813 0.03125 0.04687 0.03125 0.10938z"/>
   <path d="m17.523-0.1875q0 0.09375-0.0625 0.14062t-0.17188 0.070312-0.32031 0.023438q-0.20312 0-0.32812-0.023438-0.11719-0.023438-0.17188-0.070312-0.054688-0.046875-0.054688-0.14062v-0.70312q-0.46094 0.49219-1.0312 0.76562-0.5625 0.27344-1.1953 0.27344-0.55469 0-1.0078-0.14844-0.44531-0.14062-0.76562-0.41406-0.3125-0.27344-0.49219-0.67188-0.17188-0.39844-0.17188-0.90625 0-0.59375 0.24219-1.0312 0.24219-0.4375 0.69531-0.72656t1.1094-0.42969q0.65625-0.14844 1.4766-0.14844h0.96875v-0.54688q0-0.40625-0.08594-0.71875t-0.28125-0.51562q-0.1875-0.21094-0.49219-0.3125-0.30469-0.10938-0.75-0.10938-0.47656 0-0.85938 0.11719-0.375 0.10938-0.66406 0.25-0.28125 0.13281-0.47656 0.25-0.1875 0.10938-0.28125 0.10938-0.0625 0-0.10938-0.03125-0.04687-0.03125-0.08594-0.09375-0.03125-0.0625-0.04687-0.15625-0.01563-0.10156-0.01563-0.21875 0-0.19531 0.02344-0.30469 0.03125-0.11719 0.13281-0.21875 0.10938-0.10156 0.36719-0.23438 0.25781-0.14062 0.59375-0.25 0.33594-0.11719 0.73438-0.1875 0.39844-0.078125 0.80469-0.078125 0.75781 0 1.2891 0.17188 0.53125 0.17188 0.85938 0.50781 0.32812 0.32812 0.47656 0.82031t0.14844 1.1484zm-1.2812-3.2109h-1.1016q-0.53125 0-0.92188 0.09375-0.39062 0.085937-0.64844 0.26562-0.25781 0.17188-0.38281 0.42188-0.11719 0.24219-0.11719 0.5625 0 0.54688 0.34375 0.875 0.35156 0.32031 0.97656 0.32031 0.50781 0 0.9375-0.25781 0.4375-0.25781 0.91406-0.78906z"/>
   <path d="m25.938-0.19531q0 0.0625-0.03125 0.10938-0.03125 0.039062-0.10156 0.070312t-0.19531 0.046875-0.3125 0.015625q-0.19531 0-0.32031-0.015625t-0.19531-0.046875-0.10156-0.070312q-0.03125-0.046875-0.03125-0.10938v-4.1172q0-0.60156-0.09375-0.96875t-0.27344-0.63281-0.46875-0.40625q-0.28125-0.14062-0.65625-0.14062-0.48438 0-0.96875 0.34375t-1.0156 1.0078v4.9141q0 0.0625-0.03125 0.10938-0.03125 0.039062-0.10156 0.070312t-0.19531 0.046875-0.32031 0.015625q-0.1875 0-0.3125-0.015625t-0.20312-0.046875q-0.07031-0.03125-0.10156-0.070312-0.02344-0.046875-0.02344-0.10938v-7.0312q0-0.0625 0.02344-0.10156 0.02344-0.046875 0.09375-0.078125 0.07031-0.039063 0.17969-0.046875 0.10938-0.015625 0.28906-0.015625 0.17188 0 0.28125 0.015625 0.11719 0.00781 0.17969 0.046875 0.0625 0.03125 0.08594 0.078125 0.03125 0.039063 0.03125 0.10156v0.92969q0.59375-0.66406 1.1797-0.96875 0.59375-0.3125 1.1953-0.3125 0.70312 0 1.1797 0.24219 0.48438 0.23438 0.78125 0.63281t0.42188 0.9375q0.13281 0.53125 0.13281 1.2812z"/>
   <path d="m34.062-0.20312q0 0.0625-0.03125 0.10938t-0.10938 0.078125q-0.07031 0.03125-0.20312 0.046875t-0.33594 0.015625q-0.21094 0-0.35156-0.015625-0.13281-0.0078125-0.22656-0.03125-0.09375-0.03125-0.15625-0.078125-0.05469-0.054688-0.10156-0.125l-2.9688-3.8906v3.8984q0 0.0625-0.03125 0.10938-0.03125 0.039062-0.10156 0.070312t-0.19531 0.046875q-0.125 0.015625-0.32031 0.015625-0.1875 0-0.3125-0.015625t-0.20312-0.046875q-0.07031-0.03125-0.10156-0.070312-0.02344-0.046875-0.02344-0.10938v-10.438q0-0.0625 0.02344-0.10938 0.03125-0.04687 0.10156-0.07813 0.07813-0.03125 0.20312-0.04687 0.125-0.01563 0.3125-0.01563 0.19531 0 0.32031 0.01563t0.19531 0.04687q0.07031 0.03125 0.10156 0.07813 0.03125 0.04687 0.03125 0.10938v6.3594l2.6562-2.9219q0.0625-0.078125 0.13281-0.125 0.07031-0.054687 0.16406-0.085937 0.10156-0.039063 0.23438-0.046875 0.13281-0.015625 0.32031-0.015625 0.19531 0 0.32812 0.015625 0.13281 0.00781 0.21094 0.039063 0.08594 0.023437 0.11719 0.070312 0.03906 0.039063 0.03906 0.10938 0 0.09375-0.05469 0.1875-0.04687 0.09375-0.16406 0.21875l-2.5469 2.5469 2.8594 3.7109q0.10156 0.13281 0.14062 0.21875 0.04687 0.078125 0.04687 0.14844z"/>
   <path d="m44.656-9.5312q0 0.14844-0.01563 0.25781t-0.05469 0.17969q-0.03906 0.0625-0.09375 0.09375-0.04687 0.03125-0.10156 0.03125h-3.7031v3.4375h3.5q0.05469 0 0.10156 0.03125 0.05469 0.023437 0.09375 0.085937t0.05469 0.17188q0.01563 0.10156 0.01563 0.26562 0 0.14844-0.01563 0.25781-0.01563 0.10156-0.05469 0.17188-0.03906 0.0625-0.09375 0.10156-0.04687 0.03125-0.10156 0.03125h-3.5v4.2109q0 0.054688-0.03125 0.10938-0.03125 0.046875-0.10938 0.078125-0.07813 0.023438-0.20312 0.039062-0.125 0.023438-0.32812 0.023438-0.1875 0-0.32031-0.023438-0.13281-0.015624-0.21094-0.039062-0.07813-0.03125-0.10938-0.078125-0.03125-0.054688-0.03125-0.10938v-9.3594q0-0.30469 0.15625-0.42188 0.16406-0.125 0.34375-0.125h4.5469q0.05469 0 0.10156 0.03125 0.05469 0.03125 0.09375 0.10156 0.03906 0.070312 0.05469 0.1875 0.01563 0.10938 0.01563 0.25781z"/>
   <path d="m51.398-0.1875q0 0.09375-0.0625 0.14062t-0.17188 0.070312-0.32031 0.023438q-0.20312 0-0.32812-0.023438-0.11719-0.023438-0.17188-0.070312-0.054688-0.046875-0.054688-0.14062v-0.70312q-0.46094 0.49219-1.0312 0.76562-0.5625 0.27344-1.1953 0.27344-0.55469 0-1.0078-0.14844-0.44531-0.14062-0.76562-0.41406-0.3125-0.27344-0.49219-0.67188-0.17188-0.39844-0.17188-0.90625 0-0.59375 0.24219-1.0312 0.24219-0.4375 0.69531-0.72656t1.1094-0.42969q0.65625-0.14844 1.4766-0.14844h0.96875v-0.54688q0-0.40625-0.08594-0.71875t-0.28125-0.51562q-0.1875-0.21094-0.49219-0.3125-0.30469-0.10938-0.75-0.10938-0.47656 0-0.85938 0.11719-0.375 0.10938-0.66406 0.25-0.28125 0.13281-0.47656 0.25-0.1875 0.10938-0.28125 0.10938-0.0625 0-0.10938-0.03125-0.04687-0.03125-0.08594-0.09375-0.03125-0.0625-0.04687-0.15625-0.01563-0.10156-0.01563-0.21875 0-0.19531 0.02344-0.30469 0.03125-0.11719 0.13281-0.21875 0.10938-0.10156 0.36719-0.23438 0.25781-0.14062 0.59375-0.25 0.33594-0.11719 0.73438-0.1875 0.39844-0.078125 0.80469-0.078125 0.75781 0 1.2891 0.17188t0.85938 0.50781q0.32812 0.32812 0.47656 0.82031t0.14844 1.1484zm-1.2812-3.2109h-1.1016q-0.53125 0-0.92188 0.09375-0.39062 0.085937-0.64844 0.26562-0.25781 0.17188-0.38281 0.42188-0.11719 0.24219-0.11719 0.5625 0 0.54688 0.34375 0.875 0.35156 0.32031 0.97656 0.32031 0.50781 0 0.9375-0.25781 0.4375-0.25781 0.91406-0.78906z"/>
   <path d="m58.812-1.2656q0 0.13281-0.0078 0.23438-0.0078 0.09375-0.03125 0.16406-0.01563 0.0625-0.04687 0.11719-0.02344 0.046875-0.125 0.14844-0.09375 0.09375-0.32812 0.24219-0.23438 0.14062-0.53125 0.25781-0.28906 0.10938-0.63281 0.17969t-0.71094 0.070312q-0.75781 0-1.3438-0.25-0.58594-0.25-0.98438-0.72656-0.39064-0.48438-0.60158-1.1797-0.20312-0.70312-0.20312-1.6172 0-1.0391 0.25-1.7812 0.25781-0.75 0.69531-1.2266 0.44531-0.47656 1.0391-0.70312 0.60156-0.23438 1.2969-0.23438 0.33594 0 0.64844 0.0625 0.32031 0.0625 0.58594 0.16406t0.46875 0.23438q0.21094 0.13281 0.30469 0.22656t0.125 0.14844q0.03906 0.054687 0.0625 0.13281 0.02344 0.070312 0.03125 0.16406 0.0078 0.09375 0.0078 0.23438 0 0.30469-0.07031 0.42969-0.07031 0.11719-0.17188 0.11719-0.11719 0-0.27344-0.125-0.14844-0.13281-0.38281-0.28906t-0.57031-0.28125q-0.32812-0.13281-0.78125-0.13281-0.92969 0-1.4297 0.71875-0.49219 0.71094-0.49219 2.0703 0 0.67969 0.125 1.1953 0.13281 0.50781 0.38281 0.85156t0.60938 0.51562q0.36719 0.16406 0.83594 0.16406 0.44531 0 0.78125-0.14062t0.57812-0.30469q0.25-0.17188 0.41406-0.30469 0.17188-0.14062 0.26562-0.14062 0.05469 0 0.09375 0.03125t0.0625 0.10938q0.03125 0.070312 0.03906 0.1875 0.01563 0.10938 0.01563 0.26562z"/>
   <path d="m66.539-4.0156q0 0.30469-0.15625 0.4375-0.14844 0.125-0.34375 0.125h-4.6094q0 0.58594 0.11719 1.0547 0.11719 0.46875 0.39062 0.80469 0.27344 0.33594 0.71094 0.51562t1.0703 0.17969q0.5 0 0.89062-0.078125 0.39062-0.085938 0.67188-0.1875 0.28906-0.10156 0.46875-0.17969 0.1875-0.085937 0.28125-0.085937 0.05469 0 0.09375 0.03125 0.04687 0.023437 0.07031 0.078125 0.02344 0.054687 0.03125 0.15625 0.01563 0.09375 0.01563 0.23438 0 0.10156-0.0078 0.17969-0.0078 0.070312-0.02344 0.13281-0.0078 0.054688-0.03906 0.10156-0.02344 0.046875-0.07031 0.09375-0.03906 0.039062-0.25 0.14062-0.21094 0.09375-0.54688 0.1875-0.33596 0.09375-0.78127 0.16406-0.4375 0.078125-0.9375 0.078125-0.86719 0-1.5234-0.24219-0.64844-0.24219-1.0938-0.71875-0.44531-0.47656-0.67188-1.1953-0.22656-0.71875-0.22656-1.6719 0-0.90625 0.23438-1.625 0.23438-0.72656 0.67188-1.2266 0.44531-0.50781 1.0703-0.77344 0.625-0.27344 1.3984-0.27344 0.82812 0 1.4062 0.26562 0.58594 0.26562 0.96094 0.71875 0.375 0.44531 0.54688 1.0547 0.17969 0.60156 0.17969 1.2891zm-1.2969-0.38281q0.02344-1.0156-0.45312-1.5938-0.46875-0.57812-1.3984-0.57812-0.47656 0-0.83594 0.17969t-0.60156 0.47656q-0.24219 0.29688-0.375 0.69531-0.13281 0.39062-0.14844 0.82031z"/>
  </g>
  <path transform="matrix(-1,0,0,1,553.16,272.5)" d="m0 0 55.665 44.042" fill="none" stroke="#910a29" stroke-linejoin="round" stroke-miterlimit="10" stroke-width="1.3333"/>
  <g transform="translate(334.05,226)" aria-label="Flank Wear">
   <path d="m6.6562-9.5312q0 0.14844-0.015625 0.25781t-0.054688 0.17969q-0.039062 0.0625-0.09375 0.09375-0.046875 0.03125-0.10156 0.03125h-3.7031v3.4375h3.5q0.054687 0 0.10156 0.03125 0.054687 0.023437 0.09375 0.085937t0.054687 0.17188q0.015625 0.10156 0.015625 0.26562 0 0.14844-0.015625 0.25781-0.015625 0.10156-0.054687 0.17188-0.039063 0.0625-0.09375 0.10156-0.046875 0.03125-0.10156 0.03125h-3.5v4.2109q0 0.054688-0.03125 0.10938-0.03125 0.046876-0.10938 0.078126-0.078125 0.023438-0.20312 0.039062-0.125 0.023438-0.32812 0.023438-0.1875 0-0.32031-0.023438-0.13281-0.015625-0.21094-0.039062-0.078125-0.03125-0.10938-0.078125-0.03125-0.054688-0.03125-0.10938v-9.3594q0-0.30469 0.15625-0.42188 0.16406-0.125 0.34375-0.125h4.5469q0.054687 0 0.10156 0.03125 0.054687 0.03125 0.09375 0.10156 0.039063 0.070312 0.054687 0.1875 0.015625 0.10938 0.015625 0.25781z"/>
   <path d="m9.8281-0.19531q0 0.0625-0.03125 0.10938-0.03125 0.039062-0.10156 0.070312t-0.19531 0.046875-0.32031 0.015625q-0.1875 0-0.3125-0.015625t-0.20312-0.046875q-0.070312-0.03125-0.10156-0.070312-0.023438-0.046875-0.023438-0.10938v-10.438q0-0.0625 0.023437-0.10938 0.03125-0.04687 0.10156-0.07813 0.078125-0.03125 0.20312-0.04687 0.125-0.01563 0.3125-0.01563 0.19531 0 0.32031 0.01563t0.19531 0.04687q0.070312 0.03125 0.10156 0.07813 0.03125 0.04687 0.03125 0.10938z"/>
   <path d="m17.523-0.1875q0 0.09375-0.0625 0.14062t-0.17188 0.070312-0.32031 0.023438q-0.20312 0-0.32812-0.023438-0.11719-0.023438-0.17188-0.070312-0.054688-0.046875-0.054688-0.14062v-0.70312q-0.46094 0.49219-1.0312 0.76562-0.5625 0.27344-1.1953 0.27344-0.55469 0-1.0078-0.14844-0.44531-0.14062-0.76562-0.41406-0.3125-0.27344-0.49219-0.67188-0.17188-0.39844-0.17188-0.90625 0-0.59375 0.24219-1.0312 0.24219-0.4375 0.69531-0.72656t1.1094-0.42969q0.65625-0.14844 1.4766-0.14844h0.96875v-0.54688q0-0.40625-0.08594-0.71875t-0.28125-0.51562q-0.1875-0.21094-0.49219-0.3125-0.30469-0.10938-0.75-0.10938-0.47656 0-0.85938 0.11719-0.375 0.10938-0.66406 0.25-0.28125 0.13281-0.47656 0.25-0.1875 0.10938-0.28125 0.10938-0.0625 0-0.10938-0.03125-0.04687-0.03125-0.08594-0.09375-0.03125-0.0625-0.04687-0.15625-0.01563-0.10156-0.01563-0.21875 0-0.19531 0.02344-0.30469 0.03125-0.11719 0.13281-0.21875 0.10938-0.10156 0.36719-0.23438 0.25781-0.14062 0.59375-0.25 0.33594-0.11719 0.73438-0.1875 0.39844-0.078125 0.80469-0.078125 0.75781 0 1.2891 0.17188 0.53125 0.17188 0.85938 0.50781 0.32812 0.32812 0.47656 0.82031t0.14844 1.1484zm-1.2812-3.2109h-1.1016q-0.53125 0-0.92188 0.09375-0.39062 0.085937-0.64844 0.26562-0.25781 0.17188-0.38281 0.42188-0.11719 0.24219-0.11719 0.5625 0 0.54688 0.34375 0.875 0.35156 0.32031 0.97656 0.32031 0.50781 0 0.9375-0.25781 0.4375-0.25781 0.91406-0.78906z"/>
   <path d="m25.938-0.19531q0 0.0625-0.03125 0.10938-0.03125 0.039062-0.10156 0.070312t-0.19531 0.046875-0.3125 0.015625q-0.19531 0-0.32031-0.015625t-0.19531-0.046875-0.10156-0.070312q-0.03125-0.046875-0.03125-0.10938v-4.1172q0-0.60156-0.09375-0.96875t-0.27344-0.63281-0.46875-0.40625q-0.28125-0.14062-0.65625-0.14062-0.48438 0-0.96875 0.34375t-1.0156 1.0078v4.9141q0 0.0625-0.03125 0.10938-0.03125 0.039062-0.10156 0.070312t-0.19531 0.046875-0.32031 0.015625q-0.1875 0-0.3125-0.015625t-0.20312-0.046875q-0.07031-0.03125-0.10156-0.070312-0.02344-0.046875-0.02344-0.10938v-7.0312q0-0.0625 0.02344-0.10156 0.02344-0.046875 0.09375-0.078125 0.07031-0.039063 0.17969-0.046875 0.10938-0.015625 0.28906-0.015625 0.17188 0 0.28125 0.015625 0.11719 0.00781 0.17969 0.046875 0.0625 0.03125 0.08594 0.078125 0.03125 0.039063 0.03125 0.10156v0.92969q0.59375-0.66406 1.1797-0.96875 0.59375-0.3125 1.1953-0.3125 0.70312 0 1.1797 0.24219 0.48438 0.23438 0.78125 0.63281t0.42188 0.9375q0.13281 0.53125 0.13281 1.2812z"/>
   <path d="m34.062-0.20312q0 0.0625-0.03125 0.10938t-0.10938 0.078125q-0.07031 0.03125-0.20312 0.046875t-0.33594 0.015625q-0.21094 0-0.35156-0.015625-0.13281-0.0078125-0.22656-0.03125-0.09375-0.03125-0.15625-0.078125-0.05469-0.054688-0.10156-0.125l-2.9688-3.8906v3.8984q0 0.0625-0.03125 0.10938-0.03125 0.039062-0.10156 0.070312t-0.19531 0.046875q-0.125 0.015625-0.32031 0.015625-0.1875 0-0.3125-0.015625t-0.20312-0.046875q-0.07031-0.03125-0.10156-0.070312-0.02344-0.046875-0.02344-0.10938v-10.438q0-0.0625 0.02344-0.10938 0.03125-0.04687 0.10156-0.07813 0.07813-0.03125 0.20312-0.04687 0.125-0.01563 0.3125-0.01563 0.19531 0 0.32031 0.01563t0.19531 0.04687q0.07031 0.03125 0.10156 0.07813 0.03125 0.04687 0.03125 0.10938v6.3594l2.6562-2.9219q0.0625-0.078125 0.13281-0.125 0.07031-0.054687 0.16406-0.085937 0.10156-0.039063 0.23438-0.046875 0.13281-0.015625 0.32031-0.015625 0.19531 0 0.32812 0.015625 0.13281 0.00781 0.21094 0.039063 0.08594 0.023437 0.11719 0.070312 0.03906 0.039063 0.03906 0.10938 0 0.09375-0.05469 0.1875-0.04687 0.09375-0.16406 0.21875l-2.5469 2.5469 2.8594 3.7109q0.10156 0.13281 0.14062 0.21875 0.04687 0.078125 0.04687 0.14844z"/>
   <path d="m49.023-0.29688q-0.03125 0.10938-0.09375 0.17969-0.0625 0.0625-0.17188 0.10156-0.10938 0.03125-0.27344 0.046875-0.15625 0.015625-0.39062 0.015625-0.24219 0-0.41406-0.015625-0.16406-0.015625-0.27344-0.046875-0.10938-0.039062-0.16406-0.10156-0.05469-0.070312-0.08594-0.17969l-2.1172-7.6328h-0.01563l-1.9531 7.6328q-0.02344 0.10938-0.07813 0.17969-0.05469 0.0625-0.15625 0.10156-0.10156 0.03125-0.26562 0.046875-0.15625 0.015625-0.40625 0.015625-0.25781 0-0.42969-0.015625-0.17186-0.015625-0.28124-0.046875-0.10938-0.039062-0.17188-0.10156-0.05469-0.070312-0.07813-0.17969l-2.6719-9.3359q-0.04687-0.17969-0.05469-0.28125 0-0.10156 0.0625-0.15625 0.07031-0.05469 0.21875-0.07031 0.14844-0.01563 0.39844-0.01563 0.24219 0 0.38281 0.01563 0.14062 0.0078 0.21094 0.03906 0.07813 0.03125 0.10156 0.08594 0.03125 0.054687 0.04687 0.14062l2.2734 8.4688h0.0078l2.1562-8.4531q0.02344-0.085937 0.05469-0.14062 0.03906-0.0625 0.11719-0.09375t0.21875-0.04687q0.14844-0.01563 0.38281-0.01563 0.21875 0 0.34375 0.01563 0.13281 0.01563 0.21094 0.04687 0.07813 0.03125 0.10938 0.09375 0.03906 0.054687 0.0625 0.14062l2.3203 8.4531h0.01563l2.2266-8.4609q0.02344-0.078125 0.04687-0.13281 0.02344-0.0625 0.09375-0.09375 0.07813-0.03125 0.21094-0.04687 0.14062-0.01563 0.36719-0.01563 0.23438 0 0.36719 0.02344 0.14062 0.01563 0.20312 0.07031 0.0625 0.05469 0.05469 0.15625 0 0.10156-0.03906 0.28125z"/>
   <path d="m58.852-4.0156q0 0.30469-0.15625 0.4375-0.14844 0.125-0.34375 0.125h-4.6094q0 0.58594 0.11719 1.0547 0.11719 0.46875 0.39062 0.80469 0.27344 0.33594 0.71094 0.51562t1.0703 0.17969q0.5 0 0.89062-0.078125 0.39062-0.085938 0.67188-0.1875 0.28906-0.10156 0.46875-0.17969 0.1875-0.085937 0.28125-0.085937 0.05469 0 0.09375 0.03125 0.04687 0.023437 0.07031 0.078125 0.02344 0.054687 0.03125 0.15625 0.01563 0.09375 0.01563 0.23438 0 0.10156-0.0078 0.17969-0.0078 0.070312-0.02344 0.13281-0.0078 0.054688-0.03906 0.10156-0.02344 0.046875-0.07031 0.09375-0.03906 0.039062-0.25 0.14062-0.21094 0.09375-0.54688 0.1875-0.33596 0.09375-0.78127 0.16406-0.4375 0.078125-0.9375 0.078125-0.86719 0-1.5234-0.24219-0.64844-0.24219-1.0938-0.71875-0.44531-0.47656-0.67188-1.1953-0.22656-0.71875-0.22656-1.6719 0-0.90625 0.23438-1.625 0.23438-0.72656 0.67188-1.2266 0.44531-0.50781 1.0703-0.77344 0.625-0.27344 1.3984-0.27344 0.82812 0 1.4062 0.26562 0.58594 0.26562 0.96094 0.71875 0.375 0.44531 0.54688 1.0547 0.17969 0.60156 0.17969 1.2891zm-1.2969-0.38281q0.02344-1.0156-0.45312-1.5938-0.46875-0.57812-1.3984-0.57812-0.47656 0-0.83594 0.17969t-0.60156 0.47656q-0.24219 0.29688-0.375 0.69531-0.13281 0.39062-0.14844 0.82031z"/>
   <path d="m66.117-0.1875q0 0.09375-0.0625 0.14062t-0.17188 0.070312-0.32031 0.023438q-0.20312 0-0.32812-0.023438-0.11719-0.023438-0.17188-0.070312-0.054688-0.046875-0.054688-0.14062v-0.70312q-0.46094 0.49219-1.0312 0.76562-0.5625 0.27344-1.1953 0.27344-0.55469 0-1.0078-0.14844-0.44531-0.14062-0.76562-0.41406-0.3125-0.27344-0.49219-0.67188-0.17188-0.39844-0.17188-0.90625 0-0.59375 0.24219-1.0312 0.24219-0.4375 0.69531-0.72656t1.1094-0.42969q0.65625-0.14844 1.4766-0.14844h0.96875v-0.54688q0-0.40625-0.08594-0.71875t-0.28125-0.51562q-0.1875-0.21094-0.49219-0.3125-0.30469-0.10938-0.75-0.10938-0.47656 0-0.85938 0.11719-0.375 0.10938-0.66406 0.25-0.28125 0.13281-0.47656 0.25-0.1875 0.10938-0.28125 0.10938-0.0625 0-0.10938-0.03125-0.04687-0.03125-0.08594-0.09375-0.03125-0.0625-0.04687-0.15625-0.01563-0.10156-0.01563-0.21875 0-0.19531 0.02344-0.30469 0.03125-0.11719 0.13281-0.21875 0.10938-0.10156 0.36719-0.23438 0.25781-0.14062 0.59375-0.25 0.33594-0.11719 0.73438-0.1875 0.39844-0.078125 0.80469-0.078125 0.75781 0 1.2891 0.17188t0.85938 0.50781q0.32812 0.32812 0.47656 0.82031t0.14844 1.1484zm-1.2812-3.2109h-1.1016q-0.53125 0-0.92188 0.09375-0.39062 0.085937-0.64844 0.26562-0.25781 0.17188-0.38281 0.42188-0.11719 0.24219-0.11719 0.5625 0 0.54688 0.34375 0.875 0.35156 0.32031 0.97656 0.32031 0.50781 0 0.9375-0.25781 0.4375-0.25781 0.91406-0.78906z"/>
   <path d="m72.586-6.7656q0 0.17188-0.0078 0.28906t-0.03125 0.1875q-0.02344 0.0625-0.0625 0.10156-0.03125 0.03125-0.09375 0.03125t-0.15625-0.03125q-0.08594-0.039063-0.20312-0.070312-0.10938-0.039063-0.25-0.070312-0.14062-0.03125-0.30469-0.03125-0.19531 0-0.38281 0.078125t-0.39844 0.25781q-0.20312 0.17969-0.42969 0.47656-0.22656 0.29688-0.5 0.72656v4.625q0 0.0625-0.03125 0.10938-0.03125 0.039062-0.10156 0.070312t-0.19531 0.046875-0.32031 0.015625q-0.1875 0-0.3125-0.015625t-0.20312-0.046875q-0.07031-0.03125-0.10156-0.070312-0.02344-0.046875-0.02344-0.10938v-7.0312q0-0.0625 0.02344-0.10156 0.02344-0.046875 0.09375-0.078125 0.07031-0.039063 0.17969-0.046875 0.10938-0.015625 0.28906-0.015625 0.17188 0 0.28125 0.015625 0.11719 0.00781 0.17969 0.046875 0.0625 0.03125 0.08594 0.078125 0.03125 0.039063 0.03125 0.10156v1.0234q0.28906-0.42188 0.53906-0.6875 0.25781-0.26562 0.48438-0.41406 0.22656-0.15625 0.44531-0.21094 0.22656-0.0625 0.45312-0.0625 0.10156 0 0.22656 0.015625 0.13281 0.00781 0.27344 0.039063 0.14062 0.03125 0.25 0.070312 0.11719 0.039063 0.16406 0.078125 0.04687 0.039063 0.0625 0.078125 0.01563 0.03125 0.02344 0.085937 0.01563 0.054687 0.01563 0.16406 0.0078 0.10156 0.0078 0.28125z"/>
  </g>
  <path d="m423.05 260.3-27.55-27.805" fill="none" stroke="#910a29" stroke-linejoin="round" stroke-miterlimit="10" stroke-width="1.3333"/>
 </g>
</svg>
